#!OML:ASF I:\salsa\salsa 7_09\Patient 1\Session 1\dancerfemale.ASF
:FULLY-SPECIFIED
:DEGREES
2007
root 9.29006 15.9818 -1.98851 -157.762 -459.004 -913.506
lowerback -0.331628 7.31994 -0.210568
upperback -7.7966 9.49256 -2.80605
thorax -7.53077 4.54274 -3.37144
lowerneck 6.732 -11.657 -14.1056
upperneck 5.05981 -17.1506 12.8614
head 2.74276 -8.82483 5.72253
rclavicle -5.99336e-014 1.11319e-014
rhumerus -5.3035 -7.0971 -87.9306
rradius 107.989
rwrist 3.65992
rhand 10.265 389.256
rfingers 7.12502
rthumb 35.3776 -717.211
lclavicle -5.99336e-014 1.11319e-014
lhumerus -69.8564 26.8985 24.793
lradius 72.9046
lwrist -25.596
lhand -1.24915 -309.54
lfingers 7.12502
lthumb 24.3934 -641.073
rfemur -24.8022 -17.1772 31.4321
rtibia 32.3231
rfoot -19.7606 -19.8372
rtoes -33.9432
lfemur -12.4389 -2.54879 -13.9255
ltibia 54.6778
lfoot -9.79086 -2.22457
ltoes -6.07255
2008
root 9.55304 15.9755 -1.99474 -155.795 -462.035 -915.177
lowerback -2.63862 7.17368 2.12985
upperback -6.38193 9.38233 -2.9968
thorax -4.30663 4.47726 -4.31752
lowerneck 6.14553 -12.2671 -13.8674
upperneck 3.58379 -17.7884 13.7713
head 2.54925 -9.10826 5.90801
rclavicle -2.6339e-014 0
rhumerus -1.42444 -7.91302 -88.8386
rradius 106.571
rwrist 4.23467
rhand 9.92645 388.23
rfingers 7.12502
rthumb 35.0566 -718.313
lclavicle -2.6339e-014 0
lhumerus -67.3122 29.1131 24.1129
lradius 73.1003
lwrist -25.7151
lhand -2.41619 -310.375
lfingers 7.12502
lthumb 23.2742 -641.762
rfemur -26.0308 -17.6385 32.9703
rtibia 31.7102
rfoot -19.9012 -21.4555
rtoes -30.5666
lfemur -11.2407 -3.23272 -12.5458
ltibia 52.5236
lfoot -8.18687 -3.28711
ltoes -4.7746
2009
root 9.81496 15.9787 -1.98741 -157.142 -464.498 -913.871
lowerback -2.30205 7.1112 4.13791
upperback -6.49759 9.30099 -3.86775
thorax -4.18025 4.33687 -6.34188
lowerneck 6.56605 -12.6301 -13.3538
upperneck 3.42464 -18.3428 14.4637
head 2.5306 -9.40222 6.03472
rclavicle 1.32192e-014 7.95139e-016
rhumerus -0.342114 -9.25288 -90.5035
rradius 105.442
rwrist 4.77844
rhand 9.59779 387.362
rfingers 7.12502
rthumb 34.7448 -719.253
lclavicle 1.32192e-014 7.95139e-016
lhumerus -65.2798 28.5824 22.5643
lradius 73.4364
lwrist -25.3462
lhand -3.48944 -311.083
lfingers 7.12502
lthumb 22.2442 -642.343
rfemur -26.8834 -18.1697 33.4173
rtibia 31.3103
rfoot -19.7113 -22.6567
rtoes -28.2078
lfemur -9.51647 -4.0679 -12.2171
ltibia 49.8215
lfoot -7.22413 -4.65939
ltoes -10.1199
2010
root 10.078 15.9813 -1.97444 -162.171 -466.288 -909.104
lowerback -0.769557 6.87425 0.371642
upperback -7.46256 9.0008 -1.907
thorax -6.99299 4.3214 -2.64006
lowerneck 8.01023 -12.7487 -14.9924
upperneck 4.02265 -18.725 12.7172
head 2.51873 -9.65181 5.80005
rclavicle -6.03311e-014 -3.33958e-014
rhumerus -1.9062 -8.38276 -87.6413
rradius 104.138
rwrist 4.7208
rhand 8.9609 386.919
rfingers 7.12502
rthumb 34.1401 -719.834
lclavicle -6.03311e-014 -3.33958e-014
lhumerus -67.5915 26.8292 23.1024
lradius 74.6485
lwrist -25.0453
lhand -4.61255 -310.992
lfingers 7.12502
lthumb 21.1656 -642.127
rfemur -27.4333 -18.6074 32.2706
rtibia 31.1612
rfoot -19.4448 -23.7475
rtoes -26.0082
lfemur -7.31112 -5.04859 -13.4764
ltibia 46.5509
lfoot -6.49801 -5.61189
ltoes -10.7231
2011
root 10.3542 15.9768 -1.95478 -167.2 -467.801 -904.239
lowerback -0.315978 6.85446 -0.927304
upperback -7.33191 8.93196 -1.92932
thorax -7.31545 4.36048 -2.02758
lowerneck 8.49588 -13.0851 -15.1745
upperneck 3.776 -19.2215 12.5433
head 2.43941 -9.91317 5.77886
rclavicle -1.67526e-013 -5.4467e-014
rhumerus -1.15577 -8.90939 -87.4707
rradius 102.231
rwrist 5.18651
rhand 8.09382 387.257
rfingers 7.12502
rthumb 33.3162 -719.675
lclavicle -1.67526e-013 -5.4467e-014
lhumerus -66.7966 26.6313 22.9369
lradius 75.4306
lwrist -24.7617
lhand -5.33977 -311.068
lfingers 7.12502
lthumb 20.4669 -642.127
rfemur -28.1023 -18.76 30.6225
rtibia 31.096
rfoot -19.1214 -24.9442
rtoes -23.5626
lfemur -5.15873 -5.85301 -15.2258
ltibia 42.9305
lfoot -9.38678 -4.21759
ltoes -7.78694
2012
root 10.6399 15.9903 -1.92427 -169.424 -469.407 -901.948
lowerback -0.080385 6.85585 -1.56734
upperback -7.33633 8.91613 -1.80606
thorax -7.57916 4.39305 -1.59807
lowerneck 8.86874 -13.4369 -15.3044
upperneck 3.71886 -19.7273 12.1815
head 2.41172 -10.174 5.68061
rclavicle -2.78795e-014 -1.07344e-014
rhumerus -0.404317 -9.55521 -87.2835
rradius 100.024
rwrist 5.84299
rhand 7.3348 387.695
rfingers 7.12502
rthumb 32.5943 -719.39
lclavicle -2.78795e-014 -1.07344e-014
lhumerus -66.1348 26.4136 22.9242
lradius 76.3665
lwrist -24.5661
lhand -5.97329 -311.545
lfingers 7.12502
lthumb 19.858 -642.539
rfemur -28.9718 -18.5998 29.5978
rtibia 30.8296
rfoot -18.5917 -26.5165
rtoes -22.0013
lfemur -3.92533 -6.34313 -16.2658
ltibia 39.2686
lfoot -15.6133 -3.022
ltoes -11.9779
2013
root 10.933 16.0228 -1.88666 -170.104 -471.053 -901.178
lowerback 0.0429076 6.8016 -1.69808
upperback -7.34555 8.85519 -1.5656
thorax -7.72102 4.37935 -1.29742
lowerneck 9.30087 -13.7122 -15.4731
upperneck 3.53832 -20.1353 11.8726
head 2.33255 -10.3869 5.62139
rclavicle -1.31446e-013 -3.10104e-014
rhumerus 0.524249 -10.1814 -87.3039
rradius 97.5652
rwrist 6.67746
rhand 6.37209 387.635
rfingers 7.12502
rthumb 31.6778 -719.635
lclavicle -1.31446e-013 -3.10104e-014
lhumerus -65.6219 26.3158 23.0046
lradius 77.3441
lwrist -24.4867
lhand -6.76494 -311.871
lfingers 7.12502
lthumb 19.0969 -642.789
rfemur -29.6753 -18.1819 28.9021
rtibia 30.1977
rfoot -17.7174 -28.3899
rtoes -21.3404
lfemur -3.05177 -6.5003 -16.7659
ltibia 35.8624
lfoot -18.1983 -2.58006
ltoes -15.3208
2014
root 11.2301 16.069 -1.85109 -171.22 -472.556 -900.024
lowerback 0.406713 6.76831 -2.06154
upperback -7.38221 8.80251 -1.38478
thorax -8.0599 4.37965 -0.970454
lowerneck 9.74269 -13.967 -15.5169
upperneck 3.38304 -20.5056 11.4687
head 2.23131 -10.5786 5.52439
rclavicle 2.14687e-014 1.80894e-014
rhumerus 1.32439 -10.9444 -87.3893
rradius 94.9045
rwrist 7.50009
rhand 5.50154 387.579
rfingers 7.12502
rthumb 30.8482 -719.851
lclavicle 2.14687e-014 1.80894e-014
lhumerus -65.1076 26.2276 23.1608
lradius 78.3308
lwrist -24.4768
lhand -7.38937 -312.263
lfingers 7.12502
lthumb 18.4963 -643.122
rfemur -30.0982 -17.6625 27.8233
rtibia 29.2846
rfoot -16.7971 -30.2144
rtoes -19.3226
lfemur -2.52623 -6.47239 -17.4536
ltibia 32.9736
lfoot -18.7541 -2.3088
ltoes -10.7971
2015
root 11.5285 16.1227 -1.81756 -172.986 -473.972 -898.288
lowerback 0.903042 6.78002 -2.67182
upperback -7.33208 8.78426 -1.34618
thorax -8.39946 4.40859 -0.671823
lowerneck 9.88704 -14.299 -15.4385
upperneck 3.50321 -20.9467 11.0089
head 2.24827 -10.7973 5.35584
rclavicle 8.30671e-014 1.63003e-014
rhumerus 1.97775 -11.9137 -87.4605
rradius 92.1476
rwrist 7.9378
rhand 4.44165 387.586
rfingers 7.12502
rthumb 29.8373 -720.03
lclavicle 8.30671e-014 1.63003e-014
lhumerus -64.4084 26.2247 23.4954
lradius 79.3588
lwrist -24.4445
lhand -7.94186 -312.778
lfingers 7.12502
lthumb 17.9648 -643.587
rfemur -30.2474 -17.0344 26.154
rtibia 28.3236
rfoot -16.8009 -31.8671
rtoes -13.6867
lfemur -2.33007 -6.62271 -18.4964
ltibia 30.7715
lfoot -18.4081 -2.06809
ltoes -4.08886
2016
root 11.8305 16.1596 -1.78714 -174.807 -475.409 -896.581
lowerback 1.45553 6.7112 -3.29534
upperback -7.19144 8.65038 -1.31142
thorax -8.67172 4.38281 -0.35739
lowerneck 9.91593 -14.5804 -15.4432
upperneck 3.6918 -21.3213 10.6458
head 2.31157 -10.9824 5.21751
rclavicle -1.75552e-014 -1.42131e-014
rhumerus 2.55824 -12.745 -87.5766
rradius 89.2527
rwrist 7.94369
rhand 3.25897 387.708
rfingers 7.12502
rthumb 28.708 -720.105
lclavicle -1.75552e-014 -1.42131e-014
lhumerus -63.8217 26.2532 23.891
lradius 80.4406
lwrist -24.2307
lhand -8.71165 -312.997
lfingers 7.12502
lthumb 17.224 -643.74
rfemur -30.3566 -16.3482 24.2238
rtibia 27.588
rfoot -17.0906 -33.5471
rtoes -8.17082
lfemur -2.44627 -6.45418 -19.4895
ltibia 29.2027
lfoot -19.4045 -1.95196
ltoes -6.60777
2017
root 12.1331 16.1788 -1.76735 -176.132 -476.771 -895.375
lowerback 2.0334 6.57581 -3.86472
upperback -7.08191 8.42731 -1.18478
thorax -8.99415 4.31417 0.0306499
lowerneck 10.1805 -14.7374 -15.6165
upperneck 3.64327 -21.5716 10.4852
head 2.2898 -11.1134 5.19721
rclavicle 4.49253e-014 1.04362e-014
rhumerus 3.02152 -13.5658 -87.7367
rradius 86.2169
rwrist 8.13333
rhand 3.04135 388.686
rfingers 7.12502
rthumb 28.5001 -719.163
lclavicle 4.49253e-014 1.04362e-014
lhumerus -63.444 26.346 24.2309
lradius 81.5658
lwrist -23.9963
lhand -9.29257 -313.006
lfingers 7.12502
lthumb 16.6648 -643.701
rfemur -30.7871 -15.7498 22.5987
rtibia 27.0689
rfoot -15.5199 -35.6019
rtoes -7.73632
lfemur -2.89835 -6.47597 -20.2905
ltibia 28.169
lfoot -20.5925 -2.60149
ltoes -9.94318
2018
root 12.4253 16.1977 -1.75188 -177.166 -477.926 -894.491
lowerback 2.40191 6.49457 -4.41641
upperback -6.88054 8.28891 -0.998345
thorax -9.10019 4.29026 0.500972
lowerneck 10.3556 -14.92 -15.771
upperneck 3.59966 -21.8377 10.2442
head 2.27435 -11.2478 5.14276
rclavicle 1.48741e-013 2.54941e-014
rhumerus 3.46014 -14.575 -87.7972
rradius 83.1247
rwrist 8.73038
rhand 3.16748 389.906
rfingers 7.12502
rthumb 28.6206 -717.922
lclavicle 1.48741e-013 2.54941e-014
lhumerus -62.9328 26.7523 24.7339
lradius 82.7337
lwrist -23.9127
lhand -9.52844 -313.144
lfingers 7.12502
lthumb 16.4377 -643.82
rfemur -30.9909 -14.7721 20.8648
rtibia 26.7777
rfoot -14.5113 -36.7373
rtoes -3.98813
lfemur -3.54924 -6.61882 -20.9953
ltibia 27.6046
lfoot -20.9875 -3.48342
ltoes -9.39
2019
root 12.7044 16.2091 -1.73255 -177.968 -478.79 -893.919
lowerback 2.58413 6.52476 -4.83288
upperback -6.61887 8.31966 -0.789854
thorax -9.0212 4.34031 0.932149
lowerneck 10.3206 -15.1746 -15.8187
upperneck 3.81853 -22.1652 9.77151
head 2.34026 -11.4078 4.97589
rclavicle -5.69767e-014 1.77912e-014
rhumerus 3.82836 -15.725 -87.6601
rradius 80.028
rwrist 9.66123
rhand 2.5091 390.367
rfingers 7.12502
rthumb 27.9914 -717.565
lclavicle -5.69767e-014 1.77912e-014
lhumerus -62.1723 27.258 25.5026
lradius 83.9455
lwrist -23.7732
lhand -9.84547 -313.276
lfingers 7.12502
lthumb 16.1324 -643.927
rfemur -31.1354 -13.822 19.2962
rtibia 26.593
rfoot -13.3937 -37.279
rtoes -0.560815
lfemur -4.2242 -6.64171 -21.6213
ltibia 27.3656
lfoot -20.8618 -4.57867
ltoes -6.70649
2020
root 12.9724 16.2152 -1.70917 -178.267 -479.323 -893.908
lowerback 2.69112 6.64887 -4.87546
upperback -6.41768 8.50211 -0.598223
thorax -8.91343 4.4386 1.13327
lowerneck 10.517 -15.3586 -15.9304
upperneck 3.89833 -22.4426 9.54085
head 2.35577 -11.551 4.91526
rclavicle -7.77497e-014 1.82882e-014
rhumerus 4.09556 -17.0443 -87.54
rradius 76.7601
rwrist 10.7642
rhand 1.47922 390.715
rfingers 7.12502
rthumb 27.0064 -717.375
lclavicle -7.77497e-014 1.82882e-014
lhumerus -61.1741 27.7692 26.3433
lradius 85.1085
lwrist -23.5715
lhand -10.1875 -313.302
lfingers 7.12502
lthumb 15.8031 -643.927
rfemur -31.3746 -13.3595 18.2685
rtibia 26.5378
rfoot -10.5194 -36.4423
rtoes -2.86592
lfemur -4.92451 -6.42146 -22.0049
ltibia 27.3894
lfoot -20.6681 -5.80408
ltoes -3.27032
2021
root 13.2353 16.2153 -1.68402 -178.351 -479.671 -894.264
lowerback 2.93967 6.83391 -4.56919
upperback -6.24415 8.78074 -0.435591
thorax -8.86419 4.55959 1.0869
lowerneck 10.9119 -15.4492 -16.1691
upperneck 3.80699 -22.6416 9.58301
head 2.32442 -11.6619 4.97678
rclavicle -2.01518e-014 -1.59028e-015
rhumerus 4.39267 -18.7583 -87.6299
rradius 73.109
rwrist 11.6766
rhand 0.52103 391.655
rfingers 7.12502
rthumb 26.0893 -716.573
lclavicle -2.01518e-014 -1.59028e-015
lhumerus -59.9632 28.4029 27.2891
lradius 86.2343
lwrist -23.5052
lhand -10.5194 -313.367
lfingers 7.12502
lthumb 15.4834 -643.967
rfemur -31.5088 -13.0229 17.5394
rtibia 26.6027
rfoot -8.59655 -34.6798
rtoes -2.78827
lfemur -5.52678 -6.04685 -22.2375
ltibia 27.6606
lfoot -20.8411 -7.04969
ltoes 0.0964499
